# xmcd
# Copyright (C) 1995-1998 Ti Kan
#
# Track frame offsets:
#       150
#       29570
#       54056
#       73676
#       99796
#       128389
#       148863
#       178549
#
# Disc length: 2709 seconds
#
# Revision: 0
# Processed by: cddbd v1.5PL3 Copyright (c) Steve Scherf et al.
# Submitted via: CD-Transfer v1.0
#
DISCID=620a9308
DTITLE=Duran Duran - Mtv Unplugged
DYEAR=1900
DGENRE=
TTITLE0=Hungry Like The Wolf
TTITLE1=Ordinary World
TTITLE2=Serious
TTITLE3=Girls On Film
TTITLE4=Rio
TTITLE5=Planet Earth
TTITLE6=Come Undome
TTITLE7=Too Much Information
EXTD=
EXTT0=
EXTT1=
EXTT2=
EXTT3=
EXTT4=
EXTT5=
EXTT6=
EXTT7=
PLAYORDER=
